{"asset":{"version":"2.0","generator":"Blockbench 4.10.4 glTF exporter"},"scenes":[{"nodes":[12],"name":"blockbench_export"}],"scene":0,"nodes":[{"name":"cuboid","mesh":0},{"name":"cuboid","mesh":1},{"translation":[0,0,-0.0625],"name":"cuboid","mesh":2},{"translation":[-0.125,0.25,-0.0625],"name":"cuboid","mesh":3},{"translation":[0.125,0.25,-0.0625],"name":"cuboid","mesh":4},{"translation":[0,-0.046875,-0.25],"name":"Head","children":[2,3,4]},{"translation":[0,-0.0625,0.25],"name":"cuboid","mesh":5},{"translation":[0,-0.0625,0.75],"name":"cuboid","mesh":6},{"translation":[0,-0.0625,1.0625],"name":"cuboid","mesh":7},{"translation":[0,-0.046875,-0.25],"name":"Base","children":[6,7,8]},{"translation":[0,0.109375,-0.5],"name":"Shell","children":[0,1,5,9]},{"translation":[0,0,0.5],"name":"Snail","children":[10]},{"children":[11]}],"bufferViews":[{"buffer":0,"byteOffset":0,"byteLength":288,"target":34962,"byteStride":12},{"buffer":0,"byteOffset":288,"byteLength":288,"target":34962,"byteStride":12},{"buffer":0,"byteOffset":576,"byteLength":192,"target":34962,"byteStride":8},{"buffer":0,"byteOffset":768,"byteLength":72,"target":34963},{"buffer":0,"byteOffset":840,"byteLength":288,"target":34962,"byteStride":12},{"buffer":0,"byteOffset":1128,"byteLength":288,"target":34962,"byteStride":12},{"buffer":0,"byteOffset":1416,"byteLength":192,"target":34962,"byteStride":8},{"buffer":0,"byteOffset":1608,"byteLength":72,"target":34963},{"buffer":0,"byteOffset":1680,"byteLength":288,"target":34962,"byteStride":12},{"buffer":0,"byteOffset":1968,"byteLength":288,"target":34962,"byteStride":12},{"buffer":0,"byteOffset":2256,"byteLength":192,"target":34962,"byteStride":8},{"buffer":0,"byteOffset":2448,"byteLength":72,"target":34963},{"buffer":0,"byteOffset":2520,"byteLength":288,"target":34962,"byteStride":12},{"buffer":0,"byteOffset":2808,"byteLength":288,"target":34962,"byteStride":12},{"buffer":0,"byteOffset":3096,"byteLength":192,"target":34962,"byteStride":8},{"buffer":0,"byteOffset":3288,"byteLength":72,"target":34963},{"buffer":0,"byteOffset":3360,"byteLength":288,"target":34962,"byteStride":12},{"buffer":0,"byteOffset":3648,"byteLength":288,"target":34962,"byteStride":12},{"buffer":0,"byteOffset":3936,"byteLength":192,"target":34962,"byteStride":8},{"buffer":0,"byteOffset":4128,"byteLength":72,"target":34963},{"buffer":0,"byteOffset":4200,"byteLength":288,"target":34962,"byteStride":12},{"buffer":0,"byteOffset":4488,"byteLength":288,"target":34962,"byteStride":12},{"buffer":0,"byteOffset":4776,"byteLength":192,"target":34962,"byteStride":8},{"buffer":0,"byteOffset":4968,"byteLength":72,"target":34963},{"buffer":0,"byteOffset":5040,"byteLength":288,"target":34962,"byteStride":12},{"buffer":0,"byteOffset":5328,"byteLength":288,"target":34962,"byteStride":12},{"buffer":0,"byteOffset":5616,"byteLength":192,"target":34962,"byteStride":8},{"buffer":0,"byteOffset":5808,"byteLength":72,"target":34963},{"buffer":0,"byteOffset":5880,"byteLength":288,"target":34962,"byteStride":12},{"buffer":0,"byteOffset":6168,"byteLength":288,"target":34962,"byteStride":12},{"buffer":0,"byteOffset":6456,"byteLength":192,"target":34962,"byteStride":8},{"buffer":0,"byteOffset":6648,"byteLength":72,"target":34963},{"buffer":0,"byteOffset":6720,"byteLength":344},{"buffer":0,"byteOffset":7064,"byteLength":1032},{"buffer":0,"byteOffset":8096,"byteLength":344},{"buffer":0,"byteOffset":8440,"byteLength":1032},{"buffer":0,"byteOffset":9472,"byteLength":344},{"buffer":0,"byteOffset":9816,"byteLength":1376},{"buffer":0,"byteOffset":11192,"byteLength":344},{"buffer":0,"byteOffset":11536,"byteLength":1032},{"buffer":0,"byteOffset":12568,"byteLength":112},{"buffer":0,"byteOffset":12680,"byteLength":336},{"buffer":0,"byteOffset":13016,"byteLength":112},{"buffer":0,"byteOffset":13128,"byteLength":336},{"buffer":0,"byteOffset":13464,"byteLength":112},{"buffer":0,"byteOffset":13576,"byteLength":336},{"buffer":0,"byteOffset":13912,"byteLength":112},{"buffer":0,"byteOffset":14024,"byteLength":448}],"buffers":[{"byteLength":14472,"uri":"data:application/octet-stream;base64,"}],"accessors":[{"bufferView":0,"componentType":5126,"count":24,"max":[0.234375,0.3989908695220947,0.21149085462093353],"min":[-0.234375,0.03850914165377617,-0.14899085462093353],"type":"VEC3"},{"bufferView":1,"componentType":5126,"count":24,"max":[1,0.9396926164627075,0.9396926164627075],"min":[-1,-0.9396926164627075,-0.9396926164627075],"type":"VEC3"},{"bufferView":2,"componentType":5126,"count":24,"max":[0.4375,0.453125],"min":[0,0.25],"type":"VEC2"},{"bufferView":3,"componentType":5123,"count":36,"max":[23],"min":[0],"type":"SCALAR"},{"bufferView":4,"componentType":5126,"count":24,"max":[0.1875,0.5083639621734619,0.3208639919757843],"min":[-0.1875,-0.0708639845252037,-0.2583639919757843],"type":"VEC3"},{"bufferView":5,"componentType":5126,"count":24,"max":[1,0.9848077297210693,0.9848077297210693],"min":[-1,-0.9848077297210693,-0.9848077297210693],"type":"VEC3"},{"bufferView":6,"componentType":5126,"count":24,"max":[0.34375,0.375],"min":[0,0],"type":"VEC2"},{"bufferView":7,"componentType":5123,"count":36,"max":[23],"min":[0],"type":"SCALAR"},{"bufferView":8,"componentType":5126,"count":24,"max":[0.109375,0.375,0.109375],"min":[-0.109375,0,-0.046875],"type":"VEC3"},{"bufferView":9,"componentType":5126,"count":24,"max":[1,1,1],"min":[-1,-1,-1],"type":"VEC3"},{"bufferView":10,"componentType":5126,"count":24,"max":[0.53125,0.5],"min":[0.15625,0.046875],"type":"VEC2"},{"bufferView":11,"componentType":5123,"count":36,"max":[23],"min":[0],"type":"SCALAR"},{"bufferView":12,"componentType":5126,"count":24,"max":[0.05432895943522453,0.2505774199962616,0.17918767035007477],"min":[-0.11682896316051483,-0.0005774221499450505,0.00831233523786068],"type":"VEC3"},{"bufferView":13,"componentType":5126,"count":24,"max":[0.8870108127593994,0.7867882251739502,0.8870108127593994],"min":[-0.8870108127593994,-0.7867882251739502,-0.8870108127593994],"type":"VEC3"},{"bufferView":14,"componentType":5126,"count":24,"max":[0.53125,0.515625],"min":[0.125,0.203125],"type":"VEC2"},{"bufferView":15,"componentType":5123,"count":36,"max":[23],"min":[0],"type":"SCALAR"},{"bufferView":16,"componentType":5126,"count":24,"max":[0.11682896316051483,0.2505774199962616,0.17918767035007477],"min":[-0.05432895943522453,-0.0005774221499450505,0.00831233523786068],"type":"VEC3"},{"bufferView":17,"componentType":5126,"count":24,"max":[0.8870108127593994,0.7867882251739502,0.8870108127593994],"min":[-0.8870108127593994,-0.7867882251739502,-0.8870108127593994],"type":"VEC3"},{"bufferView":18,"componentType":5126,"count":24,"max":[0.53125,0.546875],"min":[0,0.21875],"type":"VEC2"},{"bufferView":19,"componentType":5123,"count":36,"max":[23],"min":[0],"type":"SCALAR"},{"bufferView":20,"componentType":5126,"count":24,"max":[0.25,0.125,0.25],"min":[-0.25,0,-0.25],"type":"VEC3"},{"bufferView":21,"componentType":5126,"count":24,"max":[1,1,1],"min":[-1,-1,-1],"type":"VEC3"},{"bufferView":22,"componentType":5126,"count":24,"max":[0.5625,0.484375],"min":[0,0],"type":"VEC2"},{"bufferView":23,"componentType":5123,"count":36,"max":[23],"min":[0],"type":"SCALAR"},{"bufferView":24,"componentType":5126,"count":24,"max":[0.15625,0.1875,0.0625],"min":[-0.15625,0,-0.4375],"type":"VEC3"},{"bufferView":25,"componentType":5126,"count":24,"max":[1,1,1],"min":[-1,-1,-1],"type":"VEC3"},{"bufferView":26,"componentType":5126,"count":24,"max":[0.546875,0.5],"min":[0.34375,0],"type":"VEC2"},{"bufferView":27,"componentType":5123,"count":36,"max":[23],"min":[0],"type":"SCALAR"},{"bufferView":28,"componentType":5126,"count":24,"max":[0.09375,0.125,0.0625],"min":[-0.09375,0,-0.4375],"type":"VEC3"},{"bufferView":29,"componentType":5126,"count":24,"max":[1,1,1],"min":[-1,-1,-1],"type":"VEC3"},{"bufferView":30,"componentType":5126,"count":24,"max":[0.5625,0.53125],"min":[0.28125,0.140625],"type":"VEC2"},{"bufferView":31,"componentType":5123,"count":36,"max":[23],"min":[0],"type":"SCALAR"},{"bufferView":32,"componentType":5126,"count":86,"max":[5],"min":[0],"type":"SCALAR"},{"bufferView":33,"componentType":5126,"count":86,"max":[0,-0.015625,-0.25],"min":[0,-0.046875,-0.25],"type":"VEC3"},{"bufferView":34,"componentType":5126,"count":86,"max":[5],"min":[0],"type":"SCALAR"},{"bufferView":35,"componentType":5126,"count":86,"max":[1.100000023841858,1,1],"min":[1,1,1],"type":"VEC3"},{"bufferView":36,"componentType":5126,"count":86,"max":[5],"min":[0],"type":"SCALAR"},{"bufferView":37,"componentType":5126,"count":86,"max":[-0.15212339162826538,0,0,0.9883615374565125],"min":[-0.2164396196603775,0,0,0.9762960076332092],"type":"VEC4"},{"bufferView":38,"componentType":5126,"count":86,"max":[5],"min":[0],"type":"SCALAR"},{"bufferView":39,"componentType":5126,"count":86,"max":[0,0.109375,-0.5],"min":[0,0.078125,-0.5],"type":"VEC3"},{"bufferView":40,"componentType":5126,"count":28,"max":[1.5],"min":[0],"type":"SCALAR"},{"bufferView":41,"componentType":5126,"count":28,"max":[0,-0.015625,-0.25],"min":[0,-0.046875,-0.25],"type":"VEC3"},{"bufferView":42,"componentType":5126,"count":28,"max":[1.5],"min":[0],"type":"SCALAR"},{"bufferView":43,"componentType":5126,"count":28,"max":[1,1,1.2000000476837158],"min":[1,1,1],"type":"VEC3"},{"bufferView":44,"componentType":5126,"count":28,"max":[1.5],"min":[0],"type":"SCALAR"},{"bufferView":45,"componentType":5126,"count":28,"max":[0,0.109375,-0.5],"min":[0,0.078125,-0.5],"type":"VEC3"},{"bufferView":46,"componentType":5126,"count":28,"max":[1.5],"min":[0],"type":"SCALAR"},{"bufferView":47,"componentType":5126,"count":28,"max":[-0.15212339162826538,0,0,0.9883615374565125],"min":[-0.19509032368659973,0,0,0.9807852506637573],"type":"VEC4"}],"materials":[{"pbrMetallicRoughness":{"metallicFactor":0,"roughnessFactor":1,"baseColorTexture":{"index":0}},"alphaMode":"MASK","alphaCutoff":0.05,"doubleSided":true}],"textures":[{"sampler":0,"source":0,"name":"Snail"}],"samplers":[{"magFilter":9728,"minFilter":9728,"wrapS":33071,"wrapT":33071}],"images":[{"mimeType":"image/png","uri":"data:image/png;base64,"}],"meshes":[{"primitives":[{"mode":4,"attributes":{"POSITION":0,"NORMAL":1,"TEXCOORD_0":2},"indices":3,"material":0}]},{"primitives":[{"mode":4,"attributes":{"POSITION":4,"NORMAL":5,"TEXCOORD_0":6},"indices":7,"material":0}]},{"primitives":[{"mode":4,"attributes":{"POSITION":8,"NORMAL":9,"TEXCOORD_0":10},"indices":11,"material":0}]},{"primitives":[{"mode":4,"attributes":{"POSITION":12,"NORMAL":13,"TEXCOORD_0":14},"indices":15,"material":0}]},{"primitives":[{"mode":4,"attributes":{"POSITION":16,"NORMAL":17,"TEXCOORD_0":18},"indices":19,"material":0}]},{"primitives":[{"mode":4,"attributes":{"POSITION":20,"NORMAL":21,"TEXCOORD_0":22},"indices":23,"material":0}]},{"primitives":[{"mode":4,"attributes":{"POSITION":24,"NORMAL":25,"TEXCOORD_0":26},"indices":27,"material":0}]},{"primitives":[{"mode":4,"attributes":{"POSITION":28,"NORMAL":29,"TEXCOORD_0":30},"indices":31,"material":0}]}],"animations":[{"name":"Snail_Idle","samplers":[{"input":32,"output":33,"interpolation":"LINEAR"},{"input":34,"output":35,"interpolation":"LINEAR"},{"input":36,"output":37,"interpolation":"LINEAR"},{"input":38,"output":39,"interpolation":"LINEAR"}],"channels":[{"sampler":0,"target":{"node":9,"path":"translation"}},{"sampler":1,"target":{"node":9,"path":"scale"}},{"sampler":2,"target":{"node":5,"path":"rotation"}},{"sampler":3,"target":{"node":10,"path":"translation"}}]},{"name":"Snail_WalkCycle","samplers":[{"input":40,"output":41,"interpolation":"LINEAR"},{"input":42,"output":43,"interpolation":"LINEAR"},{"input":44,"output":45,"interpolation":"LINEAR"},{"input":46,"output":47,"interpolation":"LINEAR"}],"channels":[{"sampler":0,"target":{"node":9,"path":"translation"}},{"sampler":1,"target":{"node":9,"path":"scale"}},{"sampler":2,"target":{"node":10,"path":"translation"}},{"sampler":3,"target":{"node":5,"path":"rotation"}}]}]}